# xmcd
#
# Track frame offsets:
#   150
#   15309
#   28099
#   39945
#   55455
#   74901
#   86571
#   101693
#   114338
#   127463
#
# Disc length: 1915 seconds
#
# Revision: 2
# Processed by: cddbd v1.5.1PL2 Copyright (c) Steve Scherf et al.
# Submitted via: Media_Universe 3.0
#
DISCID=8b07790a
DTITLE=Tina Turner - Country My Way
DYEAR=2003
DGENRE=Country
TTITLE0=Good Hearted Woman
TTITLE1=If It's All Right with You
TTITLE2=Stand by Your Man
TTITLE3=If This is Our Last Time
TTITLE4=Loving Him Was Easier (Than Anything I'll Ever Do Again)
TTITLE5=Soul Deep
TTITLE6=We Had it All
TTITLE7=You Ain't Woman Enough (To Take My Man)
TTITLE8=Freedom to Stay
TTITLE9=Lay it Down
EXTD=
EXTT0=
EXTT1=
EXTT2=
EXTT3=
EXTT4=
EXTT5=
EXTT6=
EXTT7=
EXTT8=
EXTT9=
PLAYORDER=
